<svg width="26" height="24" viewBox="0 0 26 24" fill="none" xmlns="http://www.w3.org/2000/svg">
<g id="Star">
<path id="Star_2" d="M20.3981 14.9001C20.0744 15.2139 19.9256 15.6676 19.9994 16.1126L21.1106 22.2626C21.2044 22.7839 20.9844 23.3114 20.5481 23.6126C20.1206 23.9251 19.5519 23.9626 19.0856 23.7126L13.5494 20.8251C13.3569 20.7226 13.1431 20.6676 12.9244 20.6614H12.5856C12.4681 20.6789 12.3531 20.7164 12.2481 20.7739L6.71064 23.6751C6.43689 23.8126 6.12689 23.8614 5.82314 23.8126C5.08314 23.6726 4.58939 22.9676 4.71064 22.2239L5.82314 16.0739C5.89689 15.6251 5.74814 15.1689 5.42439 14.8501L0.910637 10.4751C0.533137 10.1089 0.401887 9.55887 0.574387 9.06262C0.741887 8.56762 1.16939 8.20637 1.68564 8.12512L7.89814 7.22387C8.37064 7.17512 8.78564 6.88762 8.99814 6.46262L11.7356 0.850122C11.8006 0.725122 11.8844 0.610122 11.9856 0.512622L12.0981 0.425122C12.1569 0.360122 12.2244 0.306372 12.2994 0.262622L12.4356 0.212622L12.6481 0.125122H13.1744C13.6444 0.173872 14.0581 0.455122 14.2744 0.875122L17.0481 6.46262C17.2481 6.87137 17.6369 7.15512 18.0856 7.22387L24.2981 8.12512C24.8231 8.20012 25.2619 8.56262 25.4356 9.06262C25.5994 9.56387 25.4581 10.1139 25.0731 10.4751L20.3981 14.9001Z" fill="#FFF000"/>
</g>
</svg>
