<svg width="25" height="31" viewBox="0 0 25 31" fill="none" xmlns="http://www.w3.org/2000/svg">
<g id="Location">
<path id="Location_2" fill-rule="evenodd" clip-rule="evenodd" d="M0.104164 13.0467C0.104164 6.33855 5.70982 0.916626 12.4904 0.916626C19.2902 0.916626 24.8958 6.33855 24.8958 13.0467C24.8958 16.427 23.6665 19.5652 21.643 22.2252C19.4108 25.1593 16.6594 27.7156 13.5625 29.7222C12.8537 30.186 12.214 30.221 11.4361 29.7222C8.32149 27.7156 5.57012 25.1593 3.35698 22.2252C1.33206 19.5652 0.104164 16.427 0.104164 13.0467ZM8.40825 13.4244C8.40825 15.6716 10.242 17.4391 12.4904 17.4391C14.7403 17.4391 16.5917 15.6716 16.5917 13.4244C16.5917 11.1947 14.7403 9.34117 12.4904 9.34117C10.242 9.34117 8.40825 11.1947 8.40825 13.4244Z" fill="#00A3FF"/>
</g>
</svg>
